<?xml version="1.0" encoding="UTF-8"?> <svg xmlns="http://www.w3.org/2000/svg" width="60.248" height="107.62" viewBox="0 0 60.248 107.62"><g id="Group_203" data-name="Group 203" transform="translate(-578 -4073.934)"><g id="Group_198" data-name="Group 198" transform="translate(537.149 3953.838)"><path id="Path_3433" data-name="Path 3433" d="M94.087,168.959a23.118,23.118,0,1,1-46.236,0c0-12.767,23.118-47.8,23.118-47.8S94.087,156.192,94.087,168.959Z" fill="none" stroke="#000" stroke-linecap="round" stroke-linejoin="round" stroke-width="2.133"></path><path id="Path_3434" data-name="Path 3434" d="M69.7,177.564a14.791,14.791,0,0,1-14.791-14.791" transform="translate(1.111 6.545)" fill="none" stroke="#000" stroke-linecap="round" stroke-linejoin="round" stroke-width="2.133"></path></g><g id="Group_200" data-name="Group 200" transform="translate(330.733 4014.476)"><g id="Group_199" data-name="Group 199"><path id="Path_3449" data-name="Path 3449" d="M248.267,137.524c7.28,0,7.28,6,14.561,6s7.277-6,14.555-6,7.283,6,14.566,6,7.283-6,14.566-6" fill="none" stroke="#000" stroke-linecap="round" stroke-linejoin="round" stroke-width="2"></path></g><path id="Path_3450" data-name="Path 3450" d="M248.267,148.8c7.28,0,7.28,6,14.561,6s7.277-6,14.555-6,7.283,6,14.566,6,7.283-6,14.566-6" fill="none" stroke="#000" stroke-linecap="round" stroke-linejoin="round" stroke-width="2"></path><path id="Path_3451" data-name="Path 3451" d="M248.267,160.077c7.28,0,7.28,6,14.561,6s7.277-6,14.555-6,7.283,6,14.566,6,7.283-6,14.566-6" fill="none" stroke="#000" stroke-linecap="round" stroke-linejoin="round" stroke-width="2"></path></g></g></svg> 