<?xml version="1.0" encoding="UTF-8"?> <!-- Generator: Adobe Illustrator 24.0.1, SVG Export Plug-In . SVG Version: 6.00 Build 0) --> <svg xmlns="http://www.w3.org/2000/svg" xmlns:xlink="http://www.w3.org/1999/xlink" version="1.1" id="Layer_1" x="0px" y="0px" viewBox="0 0 75 133.9" style="enable-background:new 0 0 75 133.9;" xml:space="preserve"> <style type="text/css"> .st0{fill:#103676;} </style> <g id="Group_203" transform="translate(-578 -4073.934)"> <g id="Group_198" transform="translate(537.149 3953.838)"> <g id="Path_3433"> <path class="st0" d="M78.3,211c-8,0-15.6-3.1-21.3-8.8c-5.7-5.7-8.8-13.2-8.8-21.3c0-16.1,27.8-58.5,29-60.2 c0.5-0.7,1.7-0.7,2.2,0c1.2,1.8,29,44.1,29,60.2v0c0,8-3.1,15.6-8.8,21.3C94,207.9,86.4,211,78.3,211C78.3,211,78.3,211,78.3,211 z M78.3,123.8c-5.3,8.2-27.5,43.5-27.5,57.1c0,15.1,12.3,27.5,27.5,27.5c0,0,0,0,0,0c7.3,0,14.2-2.9,19.4-8 c5.2-5.2,8-12.1,8-19.4c0,0,0,0,0,0C105.8,167.3,83.6,132,78.3,123.8z M108.4,180.9L108.4,180.9L108.4,180.9z"></path> </g> <g id="Path_3434"> <path class="st0" d="M78.1,201.1c-10.9,0-19.7-8.9-19.7-19.7c0-0.7,0.6-1.3,1.3-1.3c0.7,0,1.3,0.6,1.3,1.3 c0,9.4,7.7,17.1,17.1,17.1c0.7,0,1.3,0.6,1.3,1.3C79.5,200.5,78.9,201.1,78.1,201.1z"></path> </g> </g> <g id="Group_200" transform="translate(330.733 4014.476)"> <g id="Group_199"> <g id="Path_3449"> <path class="st0" d="M302.9,165.3c-5,0-7.6-2.1-9.9-4c-2.2-1.9-4.2-3.5-8.3-3.5c-4.1,0-6,1.6-8.3,3.5c-2.3,1.9-4.9,4-9.9,4 c-5,0-7.6-2.1-9.9-4c-2.2-1.9-4.2-3.5-8.3-3.5c-0.7,0-1.2-0.6-1.2-1.2c0-0.7,0.6-1.2,1.2-1.2c5,0,7.6,2.1,9.9,4 c2.2,1.9,4.2,3.5,8.3,3.5c4.1,0,6-1.6,8.3-3.5c2.3-1.9,4.9-4,9.9-4c5,0,7.6,2.1,9.9,4c2.2,1.9,4.2,3.5,8.3,3.5s6-1.6,8.3-3.5 c2.3-1.9,4.9-4,9.9-4c0.7,0,1.2,0.6,1.2,1.2c0,0.7-0.6,1.2-1.2,1.2c-4.1,0-6,1.6-8.3,3.5C310.5,163.2,307.9,165.3,302.9,165.3z"></path> </g> </g> <g id="Path_3450"> <path class="st0" d="M302.9,179.4c-5,0-7.6-2.1-9.9-4c-2.2-1.9-4.2-3.5-8.3-3.5c-4.1,0-6,1.6-8.3,3.5c-2.3,1.9-4.9,4-9.9,4 c-5,0-7.6-2.1-9.9-4c-2.2-1.9-4.2-3.5-8.3-3.5c-0.7,0-1.2-0.6-1.2-1.2c0-0.7,0.6-1.2,1.2-1.2c5,0,7.6,2.1,9.9,4 c2.2,1.9,4.2,3.5,8.3,3.5c4.1,0,6-1.6,8.3-3.5c2.3-1.9,4.9-4,9.9-4c5,0,7.6,2.1,9.9,4c2.2,1.9,4.2,3.5,8.3,3.5s6-1.6,8.3-3.5 c2.3-1.9,4.9-4,9.9-4c0.7,0,1.2,0.6,1.2,1.2c0,0.7-0.6,1.2-1.2,1.2c-4.1,0-6,1.6-8.3,3.5C310.5,177.2,307.9,179.4,302.9,179.4z"></path> </g> <g id="Path_3451"> <path class="st0" d="M302.9,193.4c-5,0-7.6-2.1-9.9-4c-2.2-1.9-4.2-3.5-8.3-3.5c-4.1,0-6,1.6-8.3,3.5c-2.3,1.9-4.9,4-9.9,4 c-5,0-7.6-2.1-9.9-4c-2.2-1.9-4.2-3.5-8.3-3.5c-0.7,0-1.2-0.6-1.2-1.2s0.6-1.2,1.2-1.2c5,0,7.6,2.1,9.9,4 c2.2,1.9,4.2,3.5,8.3,3.5c4.1,0,6-1.6,8.3-3.5c2.3-1.9,4.9-4,9.9-4c5,0,7.6,2.1,9.9,4c2.2,1.9,4.2,3.5,8.3,3.5s6-1.6,8.3-3.5 c2.3-1.9,4.9-4,9.9-4c0.7,0,1.2,0.6,1.2,1.2s-0.6,1.2-1.2,1.2c-4.1,0-6,1.6-8.3,3.5C310.5,191.3,307.9,193.4,302.9,193.4z"></path> </g> </g> </g> </svg> 