<?xml version="1.0" encoding="UTF-8"?> <svg xmlns="http://www.w3.org/2000/svg" width="70.085" height="70.084" viewBox="0 0 70.085 70.084"><path id="Icon" d="M298.276,248.146a9.972,9.972,0,0,0-2.474,4.1l-11.616-1.016a7.757,7.757,0,0,0-6.173,2.247L247.5,284a7.781,7.781,0,0,0,0,10.991l18.049,18.049a7.771,7.771,0,0,0,10.991,0l30.516-30.516a7.753,7.753,0,0,0,2.247-6.173l-.774-8.85a.86.86,0,0,0-1.012-.775l-.017,0a.867.867,0,0,0-.71.925l.774,8.848a6.026,6.026,0,0,1-1.742,4.786L275.3,311.8a5.99,5.99,0,0,1-4.476,1.761,6.188,6.188,0,0,1-4.134-1.85l-17.96-17.96a6.033,6.033,0,0,1,0-8.521l30.517-30.516h0a6.009,6.009,0,0,1,4.256-1.765c.176,0,.353.008.529.023l19.48,1.7a2.573,2.573,0,0,1,2.342,2.342l.315,3.6a.865.865,0,0,0,1.116.752l.017-.005a.868.868,0,0,0,.606-.9l-.315-3.6a4.316,4.316,0,0,0-3.929-3.929l-6.074-.531a8.23,8.23,0,0,1,1.919-3.025h0a8.242,8.242,0,0,1,12.347.8,8.118,8.118,0,0,1,1.647,4.028,8.2,8.2,0,0,1-2.353,6.812h0a8.242,8.242,0,0,1-8.72,1.882,3.763,3.763,0,0,0-.878-3.925h0a3.765,3.765,0,1,0-.108,5.418,9.992,9.992,0,0,0,10.422-1.656q.269-.235.519-.484a9.978,9.978,0,1,0-14.111-14.111Zm.617,15.509a2.018,2.018,0,1,1,1.958-1.549,8.183,8.183,0,0,1-.759-.555.873.873,0,0,0-1.112,1.347q.367.3.758.569A2.007,2.007,0,0,1,298.894,263.655Z" transform="translate(-245.225 -245.229)" fill="#1d1d1b"></path></svg> 