<?xml version="1.0" encoding="UTF-8"?> <!-- Generator: Adobe Illustrator 24.0.1, SVG Export Plug-In . SVG Version: 6.00 Build 0) --> <svg xmlns="http://www.w3.org/2000/svg" xmlns:xlink="http://www.w3.org/1999/xlink" version="1.1" id="Layer_1" x="0px" y="0px" viewBox="0 0 75 176" style="enable-background:new 0 0 75 176;" xml:space="preserve"> <style type="text/css"> .st0{fill:#103676;} </style> <g> <path class="st0" d="M62,87.7c0,0,0-0.1,0-0.1c0-2.2-0.3-4.2-0.8-6c-1,0.4-2,0.7-3.1,1c0.4,1.5,0.7,3.2,0.7,5.1c0,0,0,0,0,0v0.4 c0,0,0,0,0,0V98H3.3V87.6c0-6,2.5-10.1,4.5-13.4c1.3-2.2,2.3-3.9,2.3-5.6c0-6.8-1.6-8.9-3.1-10.9c-1.1-1.4-2.1-2.7-2.7-6.3 c-1.3-7.8,8.4-25.4,14.1-32h25.2c3.5,4.1,8.5,12.3,11.6,19.9c1.3,0.1,2.5,0.4,3.7,0.7c-3.1-8.7-9-18.3-12.8-22.7V1.6 c0-0.9-0.7-1.6-1.6-1.6h-27c-0.9,0-1.6,0.7-1.6,1.6v15.6C10.2,23.9-0.5,42.5,1.1,51.9c0.7,4.4,2.1,6.1,3.3,7.7 c1.3,1.7,2.4,3.2,2.4,8.9c0,0.9-0.9,2.4-1.9,4C2.9,76,0,80.7,0,87.6v11.9c0,0,0,0.1,0,0.1v42.8c0,0,0,0.1,0,0.1v21.9 c0,5.3,3.6,9.9,8.7,11.2c0.9,0.2,1.9,0.3,2.8,0.3c3.9,0,7.6-2.1,9.7-5.4c2.1,3.3,5.7,5.3,9.7,5.4h0c0,0,0,0,0,0 c4,0,7.6-2.1,9.7-5.4c2.1,3.3,5.7,5.4,9.7,5.4c0,0,0,0,0,0c3.1,0,6-1.2,8.1-3.4c2.2-2.2,3.4-5.1,3.4-8.1v-21.9c0,0,0-0.1,0-0.1 V99.6c0,0,0-0.1,0-0.1V87.9C61.9,87.8,62,87.8,62,87.7z M19.1,3.3h23.7v12.8H19.1V3.3z M58.7,101.3v39.6H3.3v-39.6H58.7z M58.7,164.5c0,2.2-0.9,4.3-2.4,5.8c-1.6,1.6-3.6,2.4-5.8,2.4c0,0,0,0,0,0c-3.8,0-7.1-2.6-8-6.2c-0.2-0.7-0.8-1.2-1.6-1.2 c-0.1,0-0.2,0-0.3,0c-0.7,0-1.4,0.5-1.6,1.2c-0.9,3.6-4.2,6.2-8,6.2v0c-3.8,0-7.1-2.6-8-6.2c-0.2-0.7-0.8-1.2-1.5-1.2 c-0.1,0-0.3,0-0.4,0c-0.7,0-1.4,0.5-1.6,1.2c-1.1,4.4-5.6,7.1-10,6c-3.7-0.9-6.2-4.2-6.2-8v-20.4h55.4V164.5z"></path> <path class="st0" d="M58.9,40c-1.2-0.3-2.5-0.6-3.7-0.7c-0.7-0.1-1.4-0.1-2.2-0.1c-12.1,0-22,9.9-22,22s9.9,22,22,22 c1.7,0,3.4-0.2,5-0.6c1.1-0.3,2.1-0.6,3.1-1C69.2,78.3,75,70.4,75,61.1C75,51.1,68.2,42.5,58.9,40z M60.1,78.5c-1,0.4-2,0.7-3.1,1 c-1.3,0.3-2.6,0.4-4,0.4c-10.3,0-18.8-8.4-18.8-18.8S42.7,42.4,53,42.4c1.2,0,2.3,0.1,3.4,0.3c1.3,0.2,2.5,0.6,3.7,1.1 c6.8,2.8,11.6,9.5,11.6,17.3C71.7,69,66.9,75.7,60.1,78.5z"></path> <path class="st0" d="M65.4,52.9c-0.6-0.6-1.7-0.6-2.3,0l-3.5,3.5l-7.4,7.4L48.9,67l-7.8-7.8c-0.6-0.6-1.7-0.6-2.3,0 c-0.6,0.6-0.6,1.7,0,2.3l9,9c0.3,0.3,0.7,0.5,1.2,0.5c0,0,0,0,0,0c0.4,0,0.8-0.2,1.2-0.5l1.8-1.8l3.4-3.4l10.1-10.1 C66,54.5,66,53.5,65.4,52.9z"></path> </g> </svg> 