<?xml version="1.0" encoding="UTF-8"?> <svg xmlns="http://www.w3.org/2000/svg" width="46" height="107.923" viewBox="0 0 46 107.923"><g id="Group_205" data-name="Group 205" transform="translate(-589 -4488)"><g id="Group_204" data-name="Group 204" transform="translate(531.986 4156.613)"><g id="Group_192" data-name="Group 192" transform="translate(58.025 332.387)"><path id="Path_3438" data-name="Path 3438" d="M76.007,438.31h-.013a6.076,6.076,0,0,1-5.869-4.567c-.055,0-.128-.018-.183-.018a6.051,6.051,0,0,1-11.922-1.467V385.142c0-6.286,4.187-9.541,4.187-11.705,0-6.9-2.61-4.86-3.545-10.363s5.8-17.153,9.152-20.821h-.092v-9.866h16.57v9.866H84.2c3.356,3.67,10.088,15.319,9.152,20.821s-3.545,3.466-3.545,10.363c0,2.164,4.187,5.42,4.187,11.705l0,47.115a6.051,6.051,0,0,1-11.922,1.467c-.053,0-.127.018-.183.018a6.076,6.076,0,0,1-5.869,4.567Z" transform="translate(-58.02 -332.387)" fill="none" stroke="#000" stroke-linecap="round" stroke-linejoin="round" stroke-width="2"></path><rect id="Rectangle_62" data-name="Rectangle 62" width="9.858" height="16.561" transform="translate(26.268 0.006) rotate(90)" stroke-width="2" stroke="#000" stroke-linecap="round" stroke-linejoin="round" fill="none"></rect></g><path id="Path_3439" data-name="Path 3439" d="M77.648,361.15a2.3,2.3,0,0,1-.018.257v-.257Z" transform="translate(16.363 23.992)" fill="none" stroke="#000" stroke-linecap="round" stroke-linejoin="round" stroke-width="2"></path><rect id="Rectangle_63" data-name="Rectangle 63" width="35.997" height="26.263" transform="translate(58.014 392.49)" stroke-width="2" stroke="#000" stroke-linecap="round" stroke-linejoin="round" fill="none"></rect></g><g id="Ellipse_1475" data-name="Ellipse 1475" transform="translate(608 4512)" fill="#fff" stroke="#000" stroke-width="2"><circle cx="13.5" cy="13.5" r="13.5" stroke="none"></circle><circle cx="13.5" cy="13.5" r="12.5" fill="none"></circle></g><path id="Path_3457" data-name="Path 3457" d="M642.479,4522.849l5.5,5.524,9.413-9.389" transform="translate(-29 2.147)" fill="none" stroke="#000" stroke-linecap="round" stroke-linejoin="round" stroke-width="2"></path></g></svg> 