<?xml version="1.0" encoding="UTF-8"?> <svg xmlns="http://www.w3.org/2000/svg" width="86.615" height="88.422" viewBox="0 0 86.615 88.422"><g id="Group_208" data-name="Group 208" transform="translate(-133.663 -568.779)"><g id="Group_206" data-name="Group 206"><path id="Path_3458" data-name="Path 3458" d="M219.278,608.094a20.538,20.538,0,1,1-41.076,0c0-11.342,20.538-38.315,20.538-38.315S219.278,596.752,219.278,608.094Z" fill="none" stroke="#000" stroke-linejoin="round" stroke-width="2"></path><path id="Path_3459" data-name="Path 3459" d="M210.739,611.657a6,6,0,1,1-6-6A6,6,0,0,1,210.739,611.657Z" fill="none" stroke="#000" stroke-linejoin="round" stroke-width="2"></path></g><g id="Group_207" data-name="Group 207"><path id="Path_3460" data-name="Path 3460" d="M204.188,633.752a36.081,36.081,0,1,1-21.428-47.7" fill="none" stroke="#231f20" stroke-linejoin="round" stroke-width="2"></path><path id="Path_3461" data-name="Path 3461" d="M146.885,647.176a36.1,36.1,0,0,1,47.752,0" fill="none" stroke="#231f20" stroke-linejoin="round" stroke-width="2"></path><path id="Path_3462" data-name="Path 3462" d="M175.421,604.2a36.379,36.379,0,0,1-5.245.292,35.976,35.976,0,0,1-24.938-10.567" fill="none" stroke="#231f20" stroke-linejoin="round" stroke-width="2"></path><path id="Path_3463" data-name="Path 3463" d="M188.915,630.838c-4.951,14.7-18.155,25.363-18.155,25.363s-20-16.161-20-36.1,20-36.1,20-36.1a66.752,66.752,0,0,1,8.724,8.957" fill="none" stroke="#231f20" stroke-linejoin="round" stroke-width="2"></path><line id="Line_2" data-name="Line 2" y2="72.195" transform="translate(170.76 584.007)" fill="none" stroke="#231f20" stroke-linejoin="round" stroke-width="2"></line><line id="Line_3" data-name="Line 3" x2="43.539" transform="translate(134.663 620.104)" fill="none" stroke="#231f20" stroke-linejoin="round" stroke-width="2"></line></g></g></svg> 